# xmcd
#
# Track frame offsets: 
#        150
#        13675
#        29507
#        46315
#        66100
#        87920
#        104405
#        118870
#        135072
#        151010
#
# Disc length: 2335 seconds
#
# Revision: 6
# Processed by: cddbd v1.5.2PL0 Copyright (c) Steve Scherf et al.
# Submitted via: ExactAudioCopy v0.95a4
#
DISCID=76091d0a
DTITLE=The Judds - Greatest Hits (Vol.2)
DYEAR=1991
DGENRE=Country
TTITLE0=Let Me Tell You About Love
TTITLE1=John Deere Tractor
TTITLE2=Turn It Loose
TTITLE3=Young Love (Strong Love)
TTITLE4=Born To Be Blue
TTITLE5=I Know Where I'm Going
TTITLE6=Had A Dream (For The Heart)
TTITLE7=Guardian Angels
TTITLE8=Maybe Your Baby's Got The Blues
TTITLE9=Love Can Build A Bridge
EXTD=Year: 1991\n\n\n                                                 
EXTD=The Judds International Fan Club\n\n                      
EXTD=                                   P.O. Box 17325\n\n  
EXTD=                                                 Nashvi
EXTD=lle, TN 37217-0325\n\n   
EXTT0=
EXTT1=
EXTT2=
EXTT3=
EXTT4=
EXTT5=
EXTT6=
EXTT7=
EXTT8=
EXTT9=
PLAYORDER=
